<?xml version="1.0" standalone="no"?>
<!DOCTYPE svg PUBLIC "-//W3C//DTD SVG 20010904//EN"
 "http://www.w3.org/TR/2001/REC-SVG-20010904/DTD/svg10.dtd">
<svg version="1.0" xmlns="http://www.w3.org/2000/svg"
 width="180.000000pt" height="180.000000pt" viewBox="0 0 180.000000 180.000000"
 preserveAspectRatio="xMidYMid meet">
<metadata>
Created by potrace 1.14, written by Peter Selinger 2001-2017
</metadata>
<g transform="translate(0.000000,180.000000) scale(0.100000,-0.100000)"
fill="#000000" stroke="none">
<path d="M840 1724 c-36 -7 -107 -34 -159 -60 -200 -99 -355 -304 -427 -566
-20 -73 -27 -126 -31 -248 -5 -137 -4 -154 9 -142 11 9 17 43 21 140 18 408
239 733 563 828 72 21 208 23 284 5 147 -35 307 -148 405 -286 133 -186 200
-446 175 -679 -6 -56 -13 -109 -16 -119 -5 -14 -1 -18 12 -15 23 4 32 41 40
163 20 320 -110 654 -325 832 -119 99 -294 164 -433 162 -29 0 -82 -7 -118
-15z"/>
<path d="M871 1553 c-1 -52 -1 -53 29 -53 17 0 30 5 30 11 0 6 -8 8 -19 4 -17
-5 -21 0 -26 32 -10 60 -13 62 -14 6z"/>
<path d="M940 1555 c0 -25 5 -45 10 -45 6 0 10 20 10 45 0 25 -4 45 -10 45 -5
0 -10 -20 -10 -45z"/>
<path d="M986 1585 c-18 -48 9 -99 42 -79 9 6 18 17 20 25 4 10 -1 9 -15 -4
-18 -15 -22 -16 -33 -2 -15 18 -5 65 15 65 8 0 19 -8 25 -17 10 -16 10 -16 8
2 -4 26 -53 34 -62 10z"/>
<path d="M804 1577 c-18 -11 -19 -17 -12 -54 9 -44 26 -54 58 -33 12 8 9 10
-12 10 -18 0 -28 5 -28 15 0 8 7 15 15 15 8 0 15 4 15 9 0 5 -9 7 -20 4 -14
-4 -20 0 -20 11 0 9 6 16 14 16 8 0 18 5 21 10 8 13 -5 12 -31 -3z"/>
<path d="M1077 1573 c-14 -48 -18 -83 -9 -83 5 0 12 21 16 47 6 47 2 69 -7 36z"/>
<path d="M1110 1551 c-5 -11 -10 -26 -10 -35 0 -19 27 -46 46 -46 20 0 38 43
30 74 -8 32 -50 36 -66 7z m55 -2 c13 -19 -4 -59 -25 -59 -15 0 -20 7 -20 28
0 16 3 32 7 35 10 10 31 8 38 -4z"/>
<path d="M711 1541 c-9 -6 -12 -19 -7 -42 10 -52 20 -63 43 -50 26 13 34 43
19 73 -13 25 -34 33 -55 19z m45 -37 c7 -28 -10 -55 -25 -38 -4 5 -11 21 -15
37 -5 22 -3 27 14 27 13 0 22 -9 26 -26z"/>
<path d="M1199 1500 c-9 -31 -9 -43 1 -55 22 -27 47 -18 60 21 7 19 10 38 7
40 -3 3 -8 -5 -12 -18 -12 -37 -26 -50 -41 -37 -10 8 -10 17 1 50 8 21 10 39
5 39 -5 0 -15 -18 -21 -40z"/>
<path d="M1293 1464 c-3 -9 -1 -25 5 -35 7 -10 12 -23 12 -29 0 -19 -21 -10
-30 13 -10 22 -10 22 -7 -3 1 -15 9 -26 21 -28 27 -6 37 18 20 50 -13 25 -13
28 1 28 8 0 15 -8 16 -17 0 -12 2 -13 6 -5 5 14 -14 42 -29 42 -5 0 -11 -7
-15 -16z"/>
<path d="M597 1455 c-4 -8 -2 -17 3 -20 6 -4 10 -17 10 -30 0 -36 19 -41 45
-12 21 22 22 27 10 43 -8 11 -14 14 -15 7 0 -15 -10 -16 -30 -3 -13 9 -13 11
0 20 13 8 13 10 -1 10 -9 0 -19 -7 -22 -15z m53 -56 c0 -5 -7 -9 -15 -9 -8 0
-15 7 -15 15 0 9 6 12 15 9 8 -4 15 -10 15 -15z"/>
<path d="M535 1372 c4 -13 1 -30 -5 -38 -11 -12 -14 -12 -26 3 -11 15 -13 16
-14 2 0 -8 14 -28 30 -44 28 -26 45 -24 18 3 -17 17 9 47 29 31 27 -23 22 -2
-8 32 -25 29 -29 30 -24 11z"/>
<path d="M452 1288 c-14 -14 -16 -45 -2 -53 5 -3 21 2 35 11 24 16 25 15 25
-5 0 -12 -6 -21 -15 -21 -8 0 -15 -4 -15 -10 0 -14 13 -13 28 2 19 19 15 58
-6 58 -10 0 -23 -5 -30 -12 -6 -6 -15 -8 -19 -4 -5 4 0 13 10 20 9 7 17 16 17
20 0 10 -15 7 -28 -6z"/>
<path d="M1076 1256 c3 -8 0 -25 -7 -38 -11 -20 -11 -22 3 -10 14 11 20 9 42
-15 29 -31 44 -26 26 9 -24 46 -79 92 -64 54z"/>
<path d="M1391 1238 c-9 -15 -10 -23 -2 -31 6 -6 11 -33 11 -59 0 -55 15 -64
24 -14 7 36 -2 113 -13 121 -4 2 -13 -6 -20 -17z"/>
<path d="M1220 1222 c0 -21 -43 -66 -53 -55 -4 3 -7 0 -7 -9 0 -28 13 -28 31
2 11 17 23 30 29 30 17 0 40 -46 42 -83 1 -20 5 -34 10 -31 15 9 8 78 -12 122
-20 43 -40 56 -40 24z"/>
<path d="M403 1190 c-10 -27 -9 -32 14 -50 36 -28 49 -25 62 13 10 31 10 31
-6 10 -22 -33 -36 -28 -29 10 5 27 4 28 -4 10 -14 -34 -33 -29 -25 7 8 38 3
38 -12 0z"/>
<path d="M1309 1199 c-15 -29 -2 -37 22 -12 18 17 19 21 5 26 -10 4 -20 -1
-27 -14z"/>
<path d="M1075 1190 c-3 -5 1 -13 10 -16 22 -9 29 1 11 15 -10 8 -16 9 -21 1z"/>
<path d="M1352 1188 c-16 -16 -15 -33 3 -48 22 -18 39 1 31 34 -7 29 -16 32
-34 14z"/>
<path d="M914 1161 c1 -16 5 -27 9 -24 11 7 67 -47 67 -64 0 -7 5 -13 10 -13
24 0 2 55 -40 98 -40 39 -47 40 -46 3z"/>
<path d="M1200 1149 c-9 -16 -8 -25 6 -40 23 -26 47 -25 40 1 -3 11 -9 29 -12
40 -7 26 -20 25 -34 -1z"/>
<path d="M1517 1140 c-9 -11 -24 -21 -32 -21 -8 -1 -20 -2 -26 -3 -15 -1 -35
-33 -27 -42 4 -3 22 6 40 21 30 25 33 26 45 9 7 -10 13 -35 13 -56 0 -21 5
-38 10 -38 12 0 13 119 2 137 -6 9 -12 7 -25 -7z"/>
<path d="M377 1113 c-12 -12 -7 -22 8 -17 10 4 15 0 15 -15 0 -23 -25 -29 -33
-8 -3 7 -6 5 -6 -6 -1 -11 11 -23 32 -32 35 -14 53 -10 24 7 -14 8 -16 13 -6
24 6 8 18 14 25 14 8 0 14 5 14 11 0 6 -8 8 -19 4 -12 -3 -21 0 -25 10 -6 16
-18 19 -29 8z"/>
<path d="M892 1100 c-14 -23 -15 -59 -3 -78 5 -9 10 5 14 40 2 29 4 54 3 55
-1 1 -7 -7 -14 -17z"/>
<path d="M920 1080 c0 -22 5 -40 10 -40 6 0 10 5 10 12 0 9 3 9 12 0 32 -32
38 2 7 42 -29 36 -39 33 -39 -14z"/>
<path d="M1474 1079 c-18 -20 -18 -21 1 -35 29 -21 35 -17 35 21 0 40 -9 44
-36 14z"/>
<path d="M344 994 c-8 -31 1 -42 45 -50 25 -5 32 -4 27 4 -4 7 -14 12 -22 12
-11 0 -14 6 -9 23 5 19 4 20 -5 5 -17 -27 -33 -22 -26 7 4 14 4 25 1 25 -2 0
-8 -12 -11 -26z"/>
<path d="M1499 901 l-24 -20 23 -1 c12 0 25 7 29 15 9 25 -2 27 -28 6z"/>
<path d="M851 874 c0 -11 3 -14 6 -6 3 7 2 16 -1 19 -3 4 -6 -2 -5 -13z"/>
<path d="M887 865 c24 -32 38 -32 17 0 -9 14 -20 25 -26 25 -5 0 -1 -11 9 -25z"/>
<path d="M1429 870 c-10 -6 -46 -12 -80 -16 -80 -7 -139 -22 -139 -34 0 -13
67 -13 72 0 2 6 26 12 55 14 40 3 50 1 46 -10 -8 -22 11 -16 25 7 10 15 20 19
37 15 15 -4 25 -1 28 8 10 25 -14 34 -44 16z"/>
<path d="M323 734 c-91 -33 -173 -137 -173 -221 0 -83 74 -124 119 -67 25 31
28 59 6 50 -18 -6 -45 30 -45 60 0 52 50 123 107 153 30 15 115 14 138 -3 17
-12 16 -15 -24 -51 -72 -65 -114 -155 -151 -325 -12 -52 -23 -96 -25 -98 -2
-3 -22 3 -45 12 -50 20 -83 20 -120 1 -61 -32 -72 -112 -21 -157 17 -15 39
-28 49 -28 35 0 92 22 121 46 l30 25 40 -21 c116 -59 240 10 256 145 8 64 -7
119 -42 151 l-25 23 35 31 c90 79 76 234 -23 274 -50 20 -150 20 -207 0z m206
-95 c24 -69 5 -139 -47 -174 -53 -36 -73 -34 -65 8 17 86 69 197 93 197 4 0
13 -14 19 -31z m-62 -253 c25 -22 28 -30 28 -89 0 -72 -19 -111 -68 -135 -22
-10 -32 -10 -61 2 l-34 14 24 59 c13 32 29 84 35 116 13 65 30 73 76 33z
m-243 -199 c26 -21 27 -25 15 -45 -32 -51 -100 -49 -113 3 -15 61 43 86 98 42z"/>
<path d="M992 705 c-25 -7 -34 -17 -42 -45 -5 -19 -10 -40 -10 -46 0 -6 -16
-60 -36 -120 -33 -102 -76 -184 -95 -184 -14 0 -11 19 26 133 19 60 35 111 35
113 0 7 -54 -8 -64 -17 -5 -4 -17 -3 -26 4 -54 33 -160 -123 -160 -236 0 -69
50 -87 87 -31 l16 25 13 -30 c16 -38 37 -39 71 -5 24 24 25 24 20 5 -5 -19 -1
-21 34 -21 34 0 39 3 45 28 20 85 37 132 49 132 23 0 26 -16 10 -54 -19 -46
-19 -81 1 -100 24 -25 44 -19 84 24 l38 41 6 -25 c8 -34 49 -60 81 -52 49 12
99 71 145 170 41 86 48 95 73 96 30 0 35 -11 12 -30 -33 -27 -85 -136 -85
-177 0 -67 50 -83 87 -26 l16 25 14 -26 c16 -30 34 -33 68 -10 20 13 25 13 25
3 0 -25 -14 -36 -52 -43 -62 -11 -87 -67 -48 -106 30 -30 67 -25 107 15 37 37
49 30 41 -25 -4 -25 -1 -31 18 -36 33 -9 44 3 44 46 0 27 -8 48 -26 69 l-26
31 18 73 c9 39 32 116 50 170 l33 97 -27 -6 c-39 -10 -40 -11 -52 -54 -24 -91
-88 -197 -104 -172 -3 5 11 57 31 115 20 59 35 108 32 111 -2 2 -16 2 -31 -1
-21 -4 -28 -12 -33 -41 -9 -50 -59 -152 -92 -187 -27 -28 -28 -29 -31 -8 -2
12 15 66 37 120 43 103 51 137 29 115 -7 -7 -25 -12 -41 -12 -24 0 -28 3 -22
18 14 31 18 72 7 72 -20 0 -42 -44 -42 -82 0 -83 -97 -238 -149 -238 -45 0
-55 52 -13 74 38 20 68 54 87 99 28 68 0 95 -64 62 -30 -15 -80 -86 -117 -164
-12 -25 -33 -56 -46 -69 l-25 -23 2 64 c2 53 7 68 29 92 43 46 49 107 11 113
-11 1 -36 -9 -54 -23 -19 -13 -36 -23 -38 -22 -1 2 11 44 27 93 17 49 29 94
28 99 -2 7 -14 7 -36 0z m238 -202 c0 -45 -56 -121 -75 -102 -5 6 21 76 39
104 22 33 36 32 36 -2z m-440 -5 c0 -12 -15 -53 -34 -92 -51 -108 -92 -131
-67 -38 22 85 58 152 80 152 15 0 21 -6 21 -22z m238 -9 c4 -20 -35 -59 -59
-59 -17 0 -18 3 -8 23 27 53 60 70 67 36z m472 -298 c0 -12 -20 -25 -27 -18
-7 7 6 27 18 27 5 0 9 -4 9 -9z"/>
<path d="M1453 622 c-24 -15 -43 -30 -43 -34 0 -10 65 29 80 48 16 19 13 17
-37 -14z"/>
<path d="M890 636 c0 -2 8 -10 18 -17 15 -13 16 -12 3 4 -13 16 -21 21 -21 13z"/>
</g>
</svg>
